# xmcd
#
# Track frame offsets: 
#        183
#        14148
#        26650
#        39368
#        54825
#        69368
#        82583
#        93608
#        106608
#        119698
#        132725
#        145060
#        159480
#        172658
#        183530
#        198185
#
# Disc length: 2837 seconds
#
# Revision: 4
# Processed by: cddbd v1.5.2PL0 Copyright (c) Steve Scherf et al.
# Submitted via: ExactAudioCopyFreeDBPlugin 1.0
#
DISCID=cc0b1310
DTITLE=Django Reinhardt - Et Le Quintette Du Hot Club De France Vol. 2
DYEAR=1988
DGENRE=Jazz
TTITLE0=After You've Gone
TTITLE1=Limehouse Blues
TTITLE2=Nagasaki
TTITLE3=Chicago
TTITLE4=Georgia on my Mind
TTITLE5=Shine
TTITLE6=Exactly Like You
TTITLE7=Charleston
TTITLE8=You're Driving Me Crazy
TTITLE9=Ain't Misbehavin'
TTITLE10=Rose Room
TTITLE11=When Day is Done
TTITLE12=Runnin' Wild
TTITLE13=Swing Guitars
TTITLE14=Minor Swing
TTITLE15=Nuages
EXTD=YEAR: 1988
EXTT0=
EXTT1=
EXTT2=
EXTT3=
EXTT4=
EXTT5=
EXTT6=
EXTT7=
EXTT8=
EXTT9=
EXTT10=
EXTT11=
EXTT12=
EXTT13=
EXTT14=
EXTT15=
PLAYORDER=
